<mxfile host="app.diagrams.net" agent="Mozilla/5.0 (Windows NT 10.0; Win64; x64) AppleWebKit/537.36 (KHTML, like Gecko) Chrome/135.0.0.0 Safari/537.36 Edg/135.0.0.0" version="26.2.14">
  <diagram name="PÃ¡gina-1" id="Nj5bPiwlTzS75omwIRqY">
    <mxGraphModel dx="1034" dy="570" grid="1" gridSize="10" guides="1" tooltips="1" connect="1" arrows="1" fold="1" page="1" pageScale="1" pageWidth="827" pageHeight="1169" math="0" shadow="0">
      <root>
        <mxCell id="0" />
        <mxCell id="1" parent="0" />
        <mxCell id="g7mQZnRVp9RbRPwMtFKD-25" style="edgeStyle=orthogonalEdgeStyle;rounded=0;orthogonalLoop=1;jettySize=auto;html=1;exitX=0.5;exitY=0;exitDx=0;exitDy=0;entryX=0;entryY=0.5;entryDx=0;entryDy=0;" edge="1" parent="1" source="g7mQZnRVp9RbRPwMtFKD-1" target="g7mQZnRVp9RbRPwMtFKD-11">
          <mxGeometry relative="1" as="geometry" />
        </mxCell>
        <mxCell id="g7mQZnRVp9RbRPwMtFKD-1" value="&lt;font style=&quot;font-size: 24px;&quot;&gt;Cliente&lt;/font&gt;" style="rounded=0;whiteSpace=wrap;html=1;" vertex="1" parent="1">
          <mxGeometry x="40" y="250" width="120" height="60" as="geometry" />
        </mxCell>
        <mxCell id="g7mQZnRVp9RbRPwMtFKD-2" value="&lt;font style=&quot;font-size: 24px;&quot;&gt;Editorial&lt;/font&gt;" style="rounded=0;whiteSpace=wrap;html=1;" vertex="1" parent="1">
          <mxGeometry x="330" y="460" width="100" height="60" as="geometry" />
        </mxCell>
        <mxCell id="g7mQZnRVp9RbRPwMtFKD-11" value="&lt;font style=&quot;font-size: 16px;&quot;&gt;Realizar&lt;/font&gt;" style="rhombus;whiteSpace=wrap;html=1;" vertex="1" parent="1">
          <mxGeometry x="120" y="100" width="100" height="60" as="geometry" />
        </mxCell>
        <mxCell id="g7mQZnRVp9RbRPwMtFKD-17" value="" style="group" vertex="1" connectable="0" parent="1">
          <mxGeometry x="330" y="280" width="100" height="60" as="geometry" />
        </mxCell>
        <mxCell id="g7mQZnRVp9RbRPwMtFKD-12" value="" style="verticalLabelPosition=bottom;verticalAlign=top;html=1;shape=mxgraph.basic.frame;dx=10;whiteSpace=wrap;" vertex="1" parent="g7mQZnRVp9RbRPwMtFKD-17">
          <mxGeometry width="100" height="60" as="geometry" />
        </mxCell>
        <mxCell id="g7mQZnRVp9RbRPwMtFKD-16" value="&lt;font style=&quot;font-size: 24px;&quot;&gt;Libro&lt;/font&gt;" style="text;html=1;align=center;verticalAlign=middle;resizable=0;points=[];autosize=1;strokeColor=none;fillColor=none;" vertex="1" parent="g7mQZnRVp9RbRPwMtFKD-17">
          <mxGeometry x="10" y="10" width="80" height="40" as="geometry" />
        </mxCell>
        <mxCell id="g7mQZnRVp9RbRPwMtFKD-20" value="" style="group" vertex="1" connectable="0" parent="1">
          <mxGeometry x="330" y="100" width="100" height="60" as="geometry" />
        </mxCell>
        <mxCell id="g7mQZnRVp9RbRPwMtFKD-18" value="" style="verticalLabelPosition=bottom;verticalAlign=top;html=1;shape=mxgraph.basic.frame;dx=10;whiteSpace=wrap;" vertex="1" parent="g7mQZnRVp9RbRPwMtFKD-20">
          <mxGeometry width="100" height="60" as="geometry" />
        </mxCell>
        <mxCell id="g7mQZnRVp9RbRPwMtFKD-19" value="&lt;font style=&quot;font-size: 19px;&quot;&gt;Pedido&lt;/font&gt;" style="text;html=1;align=center;verticalAlign=middle;resizable=0;points=[];autosize=1;strokeColor=none;fillColor=none;" vertex="1" parent="g7mQZnRVp9RbRPwMtFKD-20">
          <mxGeometry x="10" y="10" width="80" height="40" as="geometry" />
        </mxCell>
        <mxCell id="g7mQZnRVp9RbRPwMtFKD-24" value="" style="group" vertex="1" connectable="0" parent="1">
          <mxGeometry x="590" y="280" width="100" height="60" as="geometry" />
        </mxCell>
        <mxCell id="g7mQZnRVp9RbRPwMtFKD-22" value="" style="verticalLabelPosition=bottom;verticalAlign=top;html=1;shape=mxgraph.basic.frame;dx=10;whiteSpace=wrap;" vertex="1" parent="g7mQZnRVp9RbRPwMtFKD-24">
          <mxGeometry width="100" height="60" as="geometry" />
        </mxCell>
        <mxCell id="g7mQZnRVp9RbRPwMtFKD-23" value="&lt;font style=&quot;font-size: 17px;&quot;&gt;Inventario&lt;/font&gt;" style="text;html=1;align=center;verticalAlign=middle;resizable=0;points=[];autosize=1;strokeColor=none;fillColor=none;" vertex="1" parent="g7mQZnRVp9RbRPwMtFKD-24">
          <mxGeometry y="15" width="100" height="30" as="geometry" />
        </mxCell>
        <mxCell id="g7mQZnRVp9RbRPwMtFKD-26" style="edgeStyle=orthogonalEdgeStyle;rounded=0;orthogonalLoop=1;jettySize=auto;html=1;exitX=1;exitY=0.5;exitDx=0;exitDy=0;entryX=0;entryY=0.5;entryDx=0;entryDy=0;entryPerimeter=0;" edge="1" parent="1" source="g7mQZnRVp9RbRPwMtFKD-11" target="g7mQZnRVp9RbRPwMtFKD-18">
          <mxGeometry relative="1" as="geometry" />
        </mxCell>
        <mxCell id="g7mQZnRVp9RbRPwMtFKD-27" value="(1,1)" style="text;html=1;align=center;verticalAlign=middle;whiteSpace=wrap;rounded=0;" vertex="1" parent="1">
          <mxGeometry x="100" y="220" width="60" height="30" as="geometry" />
        </mxCell>
        <mxCell id="g7mQZnRVp9RbRPwMtFKD-28" value="(0,N)" style="text;html=1;align=center;verticalAlign=middle;whiteSpace=wrap;rounded=0;" vertex="1" parent="1">
          <mxGeometry x="270" y="100" width="60" height="30" as="geometry" />
        </mxCell>
        <mxCell id="g7mQZnRVp9RbRPwMtFKD-29" value="&lt;font style=&quot;font-size: 17px;&quot;&gt;Contiene&lt;/font&gt;" style="rhombus;whiteSpace=wrap;html=1;" vertex="1" parent="1">
          <mxGeometry x="330" y="190" width="100" height="60" as="geometry" />
        </mxCell>
        <mxCell id="g7mQZnRVp9RbRPwMtFKD-30" style="edgeStyle=orthogonalEdgeStyle;rounded=0;orthogonalLoop=1;jettySize=auto;html=1;exitX=0.5;exitY=1;exitDx=0;exitDy=0;exitPerimeter=0;entryX=0.5;entryY=0;entryDx=0;entryDy=0;" edge="1" parent="1" source="g7mQZnRVp9RbRPwMtFKD-18" target="g7mQZnRVp9RbRPwMtFKD-29">
          <mxGeometry relative="1" as="geometry" />
        </mxCell>
        <mxCell id="g7mQZnRVp9RbRPwMtFKD-31" style="edgeStyle=orthogonalEdgeStyle;rounded=0;orthogonalLoop=1;jettySize=auto;html=1;exitX=0.5;exitY=1;exitDx=0;exitDy=0;entryX=0.5;entryY=0;entryDx=0;entryDy=0;entryPerimeter=0;" edge="1" parent="1" source="g7mQZnRVp9RbRPwMtFKD-29" target="g7mQZnRVp9RbRPwMtFKD-12">
          <mxGeometry relative="1" as="geometry" />
        </mxCell>
        <mxCell id="g7mQZnRVp9RbRPwMtFKD-32" value="(1,N)" style="text;html=1;align=center;verticalAlign=middle;whiteSpace=wrap;rounded=0;" vertex="1" parent="1">
          <mxGeometry x="370" y="160" width="60" height="30" as="geometry" />
        </mxCell>
        <mxCell id="g7mQZnRVp9RbRPwMtFKD-33" value="(1,N)" style="text;html=1;align=center;verticalAlign=middle;whiteSpace=wrap;rounded=0;" vertex="1" parent="1">
          <mxGeometry x="370" y="250" width="60" height="30" as="geometry" />
        </mxCell>
        <mxCell id="g7mQZnRVp9RbRPwMtFKD-36" style="edgeStyle=orthogonalEdgeStyle;rounded=0;orthogonalLoop=1;jettySize=auto;html=1;exitX=0.5;exitY=1;exitDx=0;exitDy=0;entryX=0.5;entryY=0;entryDx=0;entryDy=0;" edge="1" parent="1" source="g7mQZnRVp9RbRPwMtFKD-34" target="g7mQZnRVp9RbRPwMtFKD-2">
          <mxGeometry relative="1" as="geometry" />
        </mxCell>
        <mxCell id="g7mQZnRVp9RbRPwMtFKD-34" value="&lt;font style=&quot;font-size: 16px;&quot;&gt;Pertenece&lt;/font&gt;" style="rhombus;whiteSpace=wrap;html=1;" vertex="1" parent="1">
          <mxGeometry x="330" y="370" width="100" height="60" as="geometry" />
        </mxCell>
        <mxCell id="g7mQZnRVp9RbRPwMtFKD-35" style="edgeStyle=orthogonalEdgeStyle;rounded=0;orthogonalLoop=1;jettySize=auto;html=1;exitX=0.5;exitY=1;exitDx=0;exitDy=0;exitPerimeter=0;entryX=0.5;entryY=0;entryDx=0;entryDy=0;" edge="1" parent="1" source="g7mQZnRVp9RbRPwMtFKD-12" target="g7mQZnRVp9RbRPwMtFKD-34">
          <mxGeometry relative="1" as="geometry" />
        </mxCell>
        <mxCell id="g7mQZnRVp9RbRPwMtFKD-37" value="(1,N)" style="text;html=1;align=center;verticalAlign=middle;whiteSpace=wrap;rounded=0;" vertex="1" parent="1">
          <mxGeometry x="370" y="340" width="60" height="30" as="geometry" />
        </mxCell>
        <mxCell id="g7mQZnRVp9RbRPwMtFKD-38" value="(1,1)" style="text;html=1;align=center;verticalAlign=middle;whiteSpace=wrap;rounded=0;" vertex="1" parent="1">
          <mxGeometry x="370" y="430" width="60" height="30" as="geometry" />
        </mxCell>
        <mxCell id="g7mQZnRVp9RbRPwMtFKD-42" value="&lt;font style=&quot;font-size: 17px;&quot;&gt;Existe&lt;/font&gt;" style="rhombus;whiteSpace=wrap;html=1;" vertex="1" parent="1">
          <mxGeometry x="460" y="280" width="100" height="60" as="geometry" />
        </mxCell>
        <mxCell id="g7mQZnRVp9RbRPwMtFKD-43" style="edgeStyle=orthogonalEdgeStyle;rounded=0;orthogonalLoop=1;jettySize=auto;html=1;exitX=1;exitY=0.5;exitDx=0;exitDy=0;exitPerimeter=0;entryX=0;entryY=0.5;entryDx=0;entryDy=0;" edge="1" parent="1" source="g7mQZnRVp9RbRPwMtFKD-12" target="g7mQZnRVp9RbRPwMtFKD-42">
          <mxGeometry relative="1" as="geometry" />
        </mxCell>
        <mxCell id="g7mQZnRVp9RbRPwMtFKD-44" style="edgeStyle=orthogonalEdgeStyle;rounded=0;orthogonalLoop=1;jettySize=auto;html=1;exitX=1;exitY=0.5;exitDx=0;exitDy=0;entryX=-0.032;entryY=0.553;entryDx=0;entryDy=0;entryPerimeter=0;" edge="1" parent="1" source="g7mQZnRVp9RbRPwMtFKD-42" target="g7mQZnRVp9RbRPwMtFKD-23">
          <mxGeometry relative="1" as="geometry" />
        </mxCell>
        <mxCell id="g7mQZnRVp9RbRPwMtFKD-45" value="(1,N)" style="text;html=1;align=center;verticalAlign=middle;whiteSpace=wrap;rounded=0;" vertex="1" parent="1">
          <mxGeometry x="420" y="280" width="60" height="30" as="geometry" />
        </mxCell>
        <mxCell id="g7mQZnRVp9RbRPwMtFKD-46" value="(0,1)" style="text;html=1;align=center;verticalAlign=middle;whiteSpace=wrap;rounded=0;" vertex="1" parent="1">
          <mxGeometry x="540" y="280" width="60" height="30" as="geometry" />
        </mxCell>
      </root>
    </mxGraphModel>
  </diagram>
</mxfile>
